<?xml version="1.0" standalone="no"?>
<!DOCTYPE svg PUBLIC "-//W3C//DTD SVG 1.1//EN" "http://www.w3.org/Graphics/SVG/1.1/DTD/svg11.dtd">
<!--Generator: Xara Designer (www.xara.com), SVG filter version: 3.0.0.4-->
<svg stroke-width="0.501" stroke-linejoin="bevel" fill-rule="evenodd" xmlns:xlink="http://www.w3.org/1999/xlink" xmlns="http://www.w3.org/2000/svg" version="1.1" overflow="visible" width="154.8pt" height="123.12pt" viewBox="0 0 154.8 123.12">
 <defs>
  <marker id="DefaultArrow2" markerUnits="strokeWidth" viewBox="0 0 1 1" markerWidth="1" markerHeight="1" overflow="visible" orient="auto">
   <!-- REF_ARROW_STRAIGHT (-2) -->
   <g transform="scale(0.0092592592)">
    <!-- 1/108 -->
    <path d="M -9 54 L -9 -54 L 117 0 z"/>
   </g>
  </marker>
  <marker id="DefaultArrow3" markerUnits="strokeWidth" viewBox="0 0 1 1" markerWidth="1" markerHeight="1" overflow="visible" orient="auto">
   <!-- REF_ARROW_ANGLED -->
   <g transform="scale(0.0092592592)">
    <path d="M -27 54 L -9 0 L -27 -54 L 135 0 z"/>
   </g>
  </marker>
  <marker id="DefaultArrow4" markerUnits="strokeWidth" viewBox="0 0 1 1" markerWidth="1" markerHeight="1" overflow="visible" orient="auto">
   <!-- REF_ARROW_ROUNDED -->
   <g transform="scale(0.0092592592)">
    <path d="M -9,0 L -9,-45 C -9,-51.708 2.808,-56.580 9,-54 L 117,-9 C 120.916,-7.369 126.000,-4.242 126,0 C 126,4.242 120.916,7.369 117,9 L 9,54 C 2.808,56.580 -9,51.708 -9,45 z"/>
   </g>
  </marker>
  <marker id="DefaultArrow5" markerUnits="strokeWidth" viewBox="0 0 1 1" markerWidth="1" markerHeight="1" overflow="visible" orient="auto">
   <!-- REF_ARROW_SPOT -->
   <g transform="scale(0.0092592592)">
    <path d="M -54, 0 C -54,29.807 -29.807,54 0,54 C 29.807,54 54,29.807 54,0 C 54,-29.807 29.807,-54 0,-54 C -29.807,-54 -54,-29.807 -54,0 z"/>
   </g>
  </marker>
  <marker id="DefaultArrow6" markerUnits="strokeWidth" viewBox="0 0 1 1" markerWidth="1" markerHeight="1" overflow="visible" orient="auto">
   <!-- REF_ARROW_DIAMOND -->
   <g transform="scale(0.0092592592)">
    <path d="M -63,0 L 0,63 L 63,0 L 0,-63 z"/>
   </g>
  </marker>
  <marker id="DefaultArrow7" markerUnits="strokeWidth" viewBox="0 0 1 1" markerWidth="1" markerHeight="1" overflow="visible" orient="auto">
   <!-- REF_ARROW_FEATHER -->
   <g transform="scale(0.0092592592)">
    <path d="M 18,-54 L 108,-54 L 63,0 L 108,54 L 18, 54 L -36,0 z"/>
   </g>
  </marker>
  <marker id="DefaultArrow8" markerUnits="strokeWidth" viewBox="0 0 1 1" markerWidth="1" markerHeight="1" overflow="visible" orient="auto">
   <!-- REF_ARROW_FEATHER2 -->
   <g transform="scale(0.0092592592)">
    <path d="M -36,0 L 18,-54 L 54,-54 L 18,-18 L 27,-18 L 63,-54 L 99,-54 L 63,-18 L 72,-18 L 108,-54 L 144,-54 L 90,0 L 144,54 L 108,54 L 72,18 L 63,18 L 99,54 L 63,54 L 27,18 L 18,18 L 54,54 L 18,54 z"/>
   </g>
  </marker>
  <marker id="DefaultArrow9" markerUnits="strokeWidth" viewBox="0 0 1 1" markerWidth="1" markerHeight="1" overflow="visible" orient="auto">
   <!-- REF_ARROW_HOLLOWDIAMOND -->
   <g transform="scale(0.0092592592)">
    <path d="M 0,45 L -45,0 L 0, -45 L 45, 0 z M 0, 63 L-63, 0 L 0, -63 L 63, 0 z"/>
   </g>
  </marker>
  <filter id="StainedFilter">
   <feBlend mode="multiply" in2="BackgroundImage" in="SourceGraphic" result="blend"/>
   <feComposite in="blend" in2="SourceAlpha" operator="in" result="comp"/>
  </filter>
  <filter id="BleachFilter">
   <feBlend mode="screen" in2="BackgroundImage" in="SourceGraphic" result="blend"/>
   <feComposite in="blend" in2="SourceAlpha" operator="in" result="comp"/>
  </filter>
  <filter id="InvertTransparencyBitmapFilter">
   <feComponentTransfer>
    <feFuncR type="gamma" amplitude="1.055" exponent=".416666666" offset="-0.055"/>
    <feFuncG type="gamma" amplitude="1.055" exponent=".416666666" offset="-0.055"/>
    <feFuncB type="gamma" amplitude="1.055" exponent=".416666666" offset="-0.055"/>
   </feComponentTransfer>
   <feComponentTransfer>
    <feFuncR type="linear" slope="-1" intercept="1"/>
    <feFuncG type="linear" slope="-1" intercept="1"/>
    <feFuncB type="linear" slope="-1" intercept="1"/>
    <feFuncA type="linear" slope="1" intercept="0"/>
   </feComponentTransfer>
   <feComponentTransfer>
    <feFuncR type="gamma" amplitude="1" exponent="2.4" offset="0"/>
    <feFuncG type="gamma" amplitude="1" exponent="2.4" offset="0"/>
    <feFuncB type="gamma" amplitude="1" exponent="2.4" offset="0"/>
   </feComponentTransfer>
  </filter>
 </defs>
 <g id="Document" fill="none" stroke="black" font-family="Times New Roman" font-size="16" transform="scale(1 -1)">
  <g id="Spread" transform="translate(0 -123.12)">
   <g id="Layer 1">
    <g id="Group" stroke-linejoin="round" stroke-linecap="round">
     <path d="M 42.642,70.233 C 42.201,69.094 41.622,67.999 41.321,66.816 C 40.924,65.247 40.673,63.618 40.7,62 C 40.724,60.558 40.939,59.096 41.399,57.729 C 42.033,55.841 42.944,53.998 44.195,52.447 C 45.406,50.946 46.94,49.665 48.622,48.72 C 50.669,47.568 52.994,46.913 55.301,46.467 C 57.541,46.034 59.856,45.999 62.135,46.079 C 63.779,46.136 65.417,46.377 67.029,46.7 C 69.319,47.159 71.608,47.718 73.786,48.564 C 75.059,49.059 76.219,49.807 77.436,50.428" fill="none" stroke="#000000" stroke-width="1.694" stroke-miterlimit="79.8403193612775"/>
     <path d="M 112.168,70.054 C 112.608,68.912 113.188,67.815 113.488,66.631 C 113.886,65.06 114.136,63.43 114.109,61.812 C 114.085,60.37 113.87,58.91 113.41,57.544 C 112.776,55.659 111.865,53.82 110.615,52.275 C 109.404,50.779 107.869,49.505 106.188,48.567 C 104.14,47.424 101.815,46.78 99.508,46.345 C 97.268,45.922 94.954,45.898 92.674,45.987 C 91.031,46.052 89.393,46.301 87.78,46.631 C 85.49,47.1 83.201,47.669 81.023,48.525 C 79.75,49.026 78.59,49.779 77.374,50.406" fill="none" stroke="#000000" stroke-width="1.694" stroke-miterlimit="79.8403193612775"/>
     <path d="M 65.011,77.072 C 65.504,78.223 66.839,78.756 67.989,78.264 C 69.14,77.771 69.673,76.436 69.181,75.286 C 68.688,74.135 67.353,73.602 66.203,74.094 C 65.052,74.587 64.519,75.922 65.011,77.072 Z" stroke="#000000" stroke-width="1.694" marker-start="none" marker-end="none" stroke-miterlimit="79.8403193612775"/>
     <path d="M 85.34,77.2 C 85.824,78.332 87.139,78.857 88.272,78.372 C 89.404,77.888 89.929,76.573 89.444,75.44 C 88.96,74.308 87.645,73.783 86.512,74.268 C 85.38,74.752 84.855,76.067 85.34,77.2 Z" stroke="#000000" stroke-width="1.694" marker-start="none" marker-end="none" stroke-miterlimit="79.8403193612775"/>
     <path d="M 73.633,72.335 C 75.784,73.84 79.139,73.734 81.118,72.098 C 83.097,70.463 82.958,67.914 80.807,66.409 C 78.656,64.904 75.301,65.01 73.322,66.646 C 71.343,68.281 71.482,70.83 73.633,72.335 Z" stroke="#000000" stroke-width="2.061" marker-start="none" marker-end="none" stroke-miterlimit="79.8403193612775"/>
     <path d="M 75.042,69.499 C 75.084,69.713 75.293,69.852 75.508,69.809 C 75.722,69.767 75.861,69.558 75.818,69.343 C 75.776,69.129 75.567,68.99 75.352,69.033 C 75.138,69.075 74.999,69.284 75.042,69.499 Z" stroke="#000000" stroke-width="1.694" marker-start="none" marker-end="none" stroke-miterlimit="79.8403193612775"/>
     <path d="M 78.553,69.368 C 78.595,69.582 78.804,69.721 79.019,69.678 C 79.233,69.636 79.372,69.427 79.329,69.212 C 79.287,68.998 79.078,68.859 78.863,68.902 C 78.649,68.944 78.51,69.153 78.553,69.368 Z" stroke="#000000" stroke-width="1.694" marker-start="none" marker-end="none" stroke-miterlimit="79.8403193612775"/>
     <g id="Group_1" stroke="#000000" stroke-width="2.27" stroke-miterlimit="79.8403193612775">
      <path d="M 73.734,60.782 C 74.913,59.948 76.091,59.117 77.27,58.285" fill="none"/>
      <path d="M 80.931,60.9 C 79.752,60.069 78.574,59.235 77.395,58.403" fill="none"/>
     </g>
     <text xml:space="preserve" transform="translate(24.538 31.013) scale(1 -1)" font-size="16.211" font-family="Gazzarelli" stroke-width="0.404" stroke="none" fill="#000000" stroke-miterlimit="79.8403193612775"><tspan x="0" y="0">HedgeHog</tspan></text>
     <text xml:space="preserve" transform="translate(-0.97 15.97) scale(1 -1)" font-size="11.52" font-family="Arial" stroke-width="0.144" stroke="none" fill="#000000" stroke-miterlimit="79.8403193612775"><tspan x="0" y="0">Fused </tspan><tspan x="35.219" y="0" font-weight="bold">S</tspan><tspan x="42.903" y="0">piking </tspan><tspan x="76.203" y="0" font-weight="bold">N</tspan><tspan x="84.522" y="0">eural </tspan><tspan x="113.339" y="0" font-weight="bold">N</tspan><tspan x="121.658" y="0">etwork</tspan></text>
     <g id="Group_2" stroke="#000000" stroke-width="1.812" fill="#ffffff" stroke-miterlimit="79.8403193612775">
      <g id="Group_3">
       <path d="M 44.321,113.971 L 57.731,90.018 L 62.614,86.466 L 62.204,92.395 L 44.321,113.971 Z" marker-start="none" marker-end="none"/>
       <path d="M 52.338,117.924 L 62.363,92.368 L 66.717,88.185 L 67.118,94.114 L 52.338,117.924 Z" marker-start="none" marker-end="none"/>
       <path d="M 59.371,120.465 L 67.114,94.128 L 71.085,89.579 L 72.004,95.45 L 59.371,120.465 Z" marker-start="none" marker-end="none"/>
       <path d="M 67.823,122.298 L 72.172,95.193 L 75.534,90.178 L 77.189,95.885 L 67.823,122.298 Z" marker-start="none" marker-end="none"/>
       <path d="M 37.587,109.62 L 53.439,87.208 L 58.668,84.189 L 57.637,90.042 L 37.587,109.62 Z" marker-start="none" marker-end="none"/>
       <path d="M 30.853,103.4 L 49.88,83.612 L 55.502,81.409 L 53.607,87.042 L 30.853,103.4 Z" marker-start="none" marker-end="none"/>
       <path d="M 25.149,96.711 L 46.641,79.633 L 52.506,78.198 L 49.878,83.529 L 25.149,96.711 Z" marker-start="none" marker-end="none"/>
       <path d="M 20.59,88.96 L 44.162,74.891 L 50.165,74.249 L 46.852,79.183 L 20.59,88.96 Z" marker-start="none" marker-end="none"/>
       <path d="M 16.805,80.813 L 42.218,70.433 L 48.25,70.696 L 44.235,75.079 L 16.805,80.813 Z" marker-start="none" marker-end="none"/>
      </g>
      <g id="Group_4">
       <path d="M 110.699,113.94 L 97.289,89.987 L 92.406,86.435 L 92.816,92.364 L 110.699,113.94 Z" marker-start="none" marker-end="none"/>
       <path d="M 102.682,117.893 L 92.657,92.337 L 88.303,88.154 L 87.902,94.083 L 102.682,117.893 Z" marker-start="none" marker-end="none"/>
       <path d="M 95.649,120.434 L 87.906,94.097 L 83.935,89.548 L 83.016,95.419 L 95.649,120.434 Z" marker-start="none" marker-end="none"/>
       <path d="M 87.197,122.267 L 82.848,95.162 L 79.486,90.147 L 77.831,95.854 L 87.197,122.267 Z" marker-start="none" marker-end="none"/>
       <path d="M 117.433,109.589 L 101.581,87.177 L 96.352,84.158 L 97.383,90.011 L 117.433,109.589 Z" marker-start="none" marker-end="none"/>
       <path d="M 124.167,103.369 L 105.14,83.581 L 99.518,81.378 L 101.413,87.011 L 124.167,103.369 Z" marker-start="none" marker-end="none"/>
       <path d="M 129.871,96.68 L 108.379,79.602 L 102.514,78.167 L 105.142,83.498 L 129.871,96.68 Z" marker-start="none" marker-end="none"/>
       <path d="M 134.43,88.929 L 110.858,74.86 L 104.855,74.218 L 108.168,79.152 L 134.43,88.929 Z" marker-start="none" marker-end="none"/>
       <path d="M 138.215,80.782 L 112.802,70.402 L 106.77,70.665 L 110.785,75.048 L 138.215,80.782 Z" marker-start="none" marker-end="none"/>
      </g>
     </g>
     <text xml:space="preserve" transform="translate(-0.807 2.293) scale(1 -1)" stroke="none" font-size="11.52" font-family="Arial" fill="#000000" stroke-width="0.281" stroke-miterlimit="79.8403193612775"><tspan x="0" y="0">E</tspan><tspan x="8.644" y="0">m</tspan><tspan x="19.2" y="0">u</tspan><tspan x="26.567" y="0">l</tspan><tspan x="30.086" y="0">a</tspan><tspan x="37.453" y="0">t</tspan><tspan x="41.614" y="0">o</tspan><tspan x="48.981" y="0">r</tspan><tspan x="53.777" y="0">/</tspan><tspan x="57.938" y="0">C</tspan><tspan x="67.217" y="0">o</tspan><tspan x="74.584" y="0">m</tspan><tspan x="85.14" y="0">p</tspan><tspan x="92.507" y="0">u</tspan><tspan x="99.874" y="0">t</tspan><tspan x="104.035" y="0">e </tspan><tspan x="115.563" y="0">E</tspan><tspan x="124.207" y="0">n</tspan><tspan x="131.574" y="0">g</tspan><tspan x="138.941" y="0">i</tspan><tspan x="142.46" y="0">n</tspan><tspan x="149.827" y="0">e</tspan></text>
    </g>
   </g>
  </g>
 </g>
</svg>
